<svg width="1060" height="42" viewBox="0 0 1060 42" fill="none" xmlns="http://www.w3.org/2000/svg">
<path d="M851.5 13C851.5 11.067 853.067 9.5 855 9.5H962C963.933 9.5 965.5 11.067 965.5 13V29C965.5 30.933 963.933 32.5 962 32.5H855C853.067 32.5 851.5 30.933 851.5 29V13Z" stroke="#153C3C"/>
<path d="M885.448 20.3311V21.0049C885.448 21.8057 885.348 22.5234 885.148 23.1582C884.948 23.793 884.66 24.3325 884.284 24.7769C883.908 25.2212 883.456 25.5605 882.929 25.7949C882.406 26.0293 881.82 26.1465 881.171 26.1465C880.541 26.1465 879.962 26.0293 879.435 25.7949C878.913 25.5605 878.458 25.2212 878.073 24.7769C877.692 24.3325 877.396 23.793 877.187 23.1582C876.977 22.5234 876.872 21.8057 876.872 21.0049V20.3311C876.872 19.5303 876.974 18.8149 877.179 18.1851C877.389 17.5503 877.685 17.0107 878.065 16.5664C878.446 16.1172 878.898 15.7754 879.42 15.541C879.948 15.3066 880.526 15.1895 881.156 15.1895C881.806 15.1895 882.392 15.3066 882.914 15.541C883.441 15.7754 883.893 16.1172 884.269 16.5664C884.65 17.0107 884.94 17.5503 885.141 18.1851C885.346 18.8149 885.448 19.5303 885.448 20.3311ZM884.049 21.0049V20.3164C884.049 19.6816 883.983 19.1201 883.852 18.6318C883.725 18.1436 883.537 17.7334 883.288 17.4014C883.039 17.0693 882.733 16.8179 882.372 16.647C882.016 16.4761 881.61 16.3906 881.156 16.3906C880.717 16.3906 880.319 16.4761 879.962 16.647C879.611 16.8179 879.308 17.0693 879.054 17.4014C878.805 17.7334 878.612 18.1436 878.476 18.6318C878.339 19.1201 878.271 19.6816 878.271 20.3164V21.0049C878.271 21.6445 878.339 22.2109 878.476 22.7041C878.612 23.1924 878.808 23.605 879.062 23.9419C879.32 24.2739 879.625 24.5254 879.977 24.6963C880.333 24.8672 880.731 24.9526 881.171 24.9526C881.63 24.9526 882.038 24.8672 882.394 24.6963C882.75 24.5254 883.051 24.2739 883.295 23.9419C883.544 23.605 883.732 23.1924 883.859 22.7041C883.986 22.2109 884.049 21.6445 884.049 21.0049ZM890.09 24.7769L892.257 18.0752H893.642L890.793 26H889.884L890.09 24.7769ZM888.28 18.0752L890.514 24.8135L890.668 26H889.76L886.889 18.0752H888.28ZM898.452 26.1465C897.9 26.1465 897.399 26.0537 896.95 25.8682C896.506 25.6777 896.122 25.4116 895.8 25.0698C895.483 24.728 895.239 24.3228 895.068 23.854C894.897 23.3853 894.811 22.8726 894.811 22.3159V22.0083C894.811 21.3638 894.907 20.79 895.097 20.2871C895.287 19.7793 895.546 19.3496 895.873 18.998C896.201 18.6465 896.572 18.3804 896.987 18.1997C897.402 18.019 897.831 17.9287 898.276 17.9287C898.842 17.9287 899.33 18.0264 899.741 18.2217C900.156 18.417 900.495 18.6904 900.759 19.042C901.022 19.3887 901.218 19.7988 901.345 20.2725C901.472 20.7412 901.535 21.2539 901.535 21.8105V22.4185H895.617V21.3125H900.18V21.21C900.161 20.8584 900.087 20.5166 899.96 20.1846C899.838 19.8525 899.643 19.5791 899.374 19.3643C899.106 19.1494 898.74 19.042 898.276 19.042C897.968 19.042 897.685 19.1079 897.426 19.2397C897.167 19.3667 896.945 19.5571 896.76 19.811C896.574 20.0649 896.43 20.375 896.327 20.7412C896.225 21.1074 896.174 21.5298 896.174 22.0083V22.3159C896.174 22.6919 896.225 23.0459 896.327 23.3779C896.435 23.7051 896.589 23.9932 896.789 24.2422C896.994 24.4912 897.241 24.6865 897.529 24.8281C897.822 24.9697 898.154 25.0405 898.525 25.0405C899.003 25.0405 899.409 24.9429 899.741 24.7476C900.073 24.5522 900.363 24.291 900.612 23.9639L901.432 24.6157C901.262 24.8745 901.044 25.1211 900.781 25.3555C900.517 25.5898 900.192 25.7803 899.807 25.9268C899.426 26.0732 898.974 26.1465 898.452 26.1465ZM904.792 19.3203V26H903.437V18.0752H904.755L904.792 19.3203ZM907.268 18.0312L907.26 19.291C907.148 19.2666 907.041 19.252 906.938 19.2471C906.84 19.2373 906.728 19.2324 906.601 19.2324C906.289 19.2324 906.013 19.2812 905.773 19.3789C905.534 19.4766 905.332 19.6133 905.166 19.7891C905 19.9648 904.868 20.1748 904.77 20.4189C904.677 20.6582 904.616 20.9219 904.587 21.21L904.206 21.4297C904.206 20.9512 904.252 20.502 904.345 20.082C904.443 19.6621 904.592 19.291 904.792 18.9688C904.992 18.6416 905.246 18.3877 905.554 18.207C905.866 18.0215 906.237 17.9287 906.667 17.9287C906.765 17.9287 906.877 17.9409 907.004 17.9653C907.131 17.9849 907.219 18.0068 907.268 18.0312ZM911.382 24.7769L913.55 18.0752H914.934L912.085 26H911.176L911.382 24.7769ZM909.572 18.0752L911.806 24.8135L911.96 26H911.052L908.181 18.0752H909.572ZM918.03 18.0752V26H916.667V18.0752H918.03ZM916.565 15.9731C916.565 15.7534 916.631 15.5679 916.763 15.4165C916.899 15.2651 917.1 15.1895 917.363 15.1895C917.622 15.1895 917.82 15.2651 917.956 15.4165C918.098 15.5679 918.169 15.7534 918.169 15.9731C918.169 16.1831 918.098 16.3638 917.956 16.5151C917.82 16.6616 917.622 16.7349 917.363 16.7349C917.1 16.7349 916.899 16.6616 916.763 16.5151C916.631 16.3638 916.565 16.1831 916.565 15.9731ZM923.814 26.1465C923.262 26.1465 922.761 26.0537 922.312 25.8682C921.868 25.6777 921.484 25.4116 921.162 25.0698C920.845 24.728 920.601 24.3228 920.43 23.854C920.259 23.3853 920.173 22.8726 920.173 22.3159V22.0083C920.173 21.3638 920.269 20.79 920.459 20.2871C920.649 19.7793 920.908 19.3496 921.235 18.998C921.563 18.6465 921.934 18.3804 922.349 18.1997C922.764 18.019 923.193 17.9287 923.638 17.9287C924.204 17.9287 924.692 18.0264 925.103 18.2217C925.518 18.417 925.857 18.6904 926.121 19.042C926.384 19.3887 926.58 19.7988 926.707 20.2725C926.834 20.7412 926.897 21.2539 926.897 21.8105V22.4185H920.979V21.3125H925.542V21.21C925.523 20.8584 925.449 20.5166 925.322 20.1846C925.2 19.8525 925.005 19.5791 924.736 19.3643C924.468 19.1494 924.102 19.042 923.638 19.042C923.33 19.042 923.047 19.1079 922.788 19.2397C922.529 19.3667 922.307 19.5571 922.122 19.811C921.936 20.0649 921.792 20.375 921.69 20.7412C921.587 21.1074 921.536 21.5298 921.536 22.0083V22.3159C921.536 22.6919 921.587 23.0459 921.69 23.3779C921.797 23.7051 921.951 23.9932 922.151 24.2422C922.356 24.4912 922.603 24.6865 922.891 24.8281C923.184 24.9697 923.516 25.0405 923.887 25.0405C924.365 25.0405 924.771 24.9429 925.103 24.7476C925.435 24.5522 925.725 24.291 925.974 23.9639L926.795 24.6157C926.624 24.8745 926.406 25.1211 926.143 25.3555C925.879 25.5898 925.554 25.7803 925.169 25.9268C924.788 26.0732 924.336 26.1465 923.814 26.1465ZM930.806 24.5938L932.842 18.0752H933.736L933.56 19.3716L931.487 26H930.615L930.806 24.5938ZM929.436 18.0752L931.172 24.667L931.297 26H930.381L928.081 18.0752H929.436ZM935.684 24.6157L937.339 18.0752H938.687L936.387 26H935.479L935.684 24.6157ZM933.933 18.0752L935.926 24.4839L936.153 26H935.288L933.157 19.3569L932.981 18.0752H933.933Z" fill="#DDE4E4"/>
<path d="M967.5 13C967.5 11.067 969.067 9.5 971 9.5H1056C1057.93 9.5 1059.5 11.067 1059.5 13V29C1059.5 30.933 1057.93 32.5 1056 32.5H971C969.067 32.5 967.5 30.933 967.5 29V13Z" stroke="#153C3C"/>
<path d="M997.171 21.8179H994.322V20.668H997.171C997.723 20.668 998.169 20.5801 998.511 20.4043C998.853 20.2285 999.102 19.9844 999.258 19.6719C999.419 19.3594 999.5 19.0029 999.5 18.6025C999.5 18.2363 999.419 17.8921 999.258 17.5698C999.102 17.2476 998.853 16.9888 998.511 16.7935C998.169 16.5933 997.723 16.4932 997.171 16.4932H994.651V26H993.238V15.3359H997.171C997.977 15.3359 998.658 15.4751 999.214 15.7534C999.771 16.0317 1000.19 16.4175 1000.48 16.9106C1000.77 17.3989 1000.91 17.958 1000.91 18.5879C1000.91 19.2715 1000.77 19.855 1000.48 20.3384C1000.19 20.8218 999.771 21.1904 999.214 21.4443C998.658 21.6934 997.977 21.8179 997.171 21.8179ZM1007.4 24.645V20.5654C1007.4 20.2529 1007.34 19.9819 1007.21 19.7524C1007.09 19.5181 1006.9 19.3374 1006.65 19.2104C1006.4 19.0835 1006.1 19.02 1005.73 19.02C1005.39 19.02 1005.09 19.0786 1004.83 19.1958C1004.58 19.313 1004.38 19.4668 1004.23 19.6572C1004.09 19.8477 1004.02 20.0527 1004.02 20.2725H1002.66C1002.66 19.9893 1002.74 19.7085 1002.88 19.4302C1003.03 19.1519 1003.24 18.9004 1003.51 18.6758C1003.79 18.4463 1004.12 18.2656 1004.51 18.1338C1004.9 17.9971 1005.33 17.9287 1005.81 17.9287C1006.39 17.9287 1006.9 18.0264 1007.33 18.2217C1007.78 18.417 1008.13 18.7124 1008.37 19.1079C1008.63 19.4985 1008.76 19.9893 1008.76 20.5801V24.2715C1008.76 24.5352 1008.78 24.8159 1008.82 25.1138C1008.87 25.4116 1008.94 25.668 1009.03 25.8828V26H1007.62C1007.55 25.8438 1007.5 25.6362 1007.46 25.3774C1007.42 25.1138 1007.4 24.8696 1007.4 24.645ZM1007.63 21.1953L1007.65 22.1475H1006.28C1005.89 22.1475 1005.55 22.1792 1005.25 22.2427C1004.94 22.3013 1004.69 22.3916 1004.49 22.5137C1004.28 22.6357 1004.12 22.7896 1004.02 22.9751C1003.91 23.1558 1003.86 23.3682 1003.86 23.6123C1003.86 23.8613 1003.91 24.0884 1004.02 24.2935C1004.14 24.4985 1004.3 24.6621 1004.53 24.7842C1004.76 24.9014 1005.04 24.96 1005.37 24.96C1005.79 24.96 1006.15 24.8721 1006.47 24.6963C1006.79 24.5205 1007.04 24.3057 1007.22 24.0518C1007.42 23.7979 1007.52 23.5513 1007.53 23.312L1008.11 23.9639C1008.08 24.1689 1007.98 24.396 1007.83 24.645C1007.68 24.894 1007.48 25.1333 1007.22 25.3628C1006.98 25.5874 1006.68 25.7754 1006.33 25.9268C1005.99 26.0732 1005.6 26.1465 1005.17 26.1465C1004.64 26.1465 1004.17 26.0415 1003.76 25.8315C1003.36 25.6216 1003.05 25.3408 1002.82 24.9893C1002.6 24.6328 1002.49 24.2349 1002.49 23.7954C1002.49 23.3706 1002.58 22.9971 1002.74 22.6748C1002.91 22.3477 1003.15 22.0767 1003.46 21.8618C1003.77 21.6421 1004.15 21.4761 1004.59 21.3638C1005.03 21.2515 1005.52 21.1953 1006.06 21.1953H1007.63ZM1016.34 18.0752H1017.57V25.8315C1017.57 26.5298 1017.43 27.1255 1017.15 27.6187C1016.86 28.1118 1016.47 28.4854 1015.96 28.7393C1015.46 28.998 1014.88 29.1274 1014.22 29.1274C1013.94 29.1274 1013.62 29.0835 1013.25 28.9956C1012.88 28.9126 1012.52 28.7686 1012.17 28.5635C1011.81 28.3633 1011.52 28.0923 1011.28 27.7505L1011.99 26.9448C1012.32 27.3452 1012.67 27.6235 1013.03 27.7798C1013.4 27.936 1013.76 28.0142 1014.11 28.0142C1014.54 28.0142 1014.92 27.9336 1015.23 27.7725C1015.54 27.6113 1015.78 27.3721 1015.95 27.0547C1016.13 26.7422 1016.22 26.3564 1016.22 25.8975V19.8184L1016.34 18.0752ZM1010.88 22.1255V21.9717C1010.88 21.3662 1010.96 20.8169 1011.1 20.3237C1011.24 19.8257 1011.45 19.3984 1011.72 19.042C1011.99 18.6855 1012.32 18.4121 1012.71 18.2217C1013.09 18.0264 1013.53 17.9287 1014.01 17.9287C1014.51 17.9287 1014.94 18.0166 1015.32 18.1924C1015.69 18.3633 1016.01 18.6147 1016.27 18.9468C1016.53 19.2739 1016.74 19.6694 1016.89 20.1333C1017.04 20.5972 1017.15 21.1221 1017.21 21.708V22.3818C1017.15 22.9629 1017.05 23.4854 1016.89 23.9492C1016.74 24.4131 1016.53 24.8086 1016.27 25.1357C1016.01 25.4629 1015.69 25.7144 1015.32 25.8901C1014.94 26.061 1014.5 26.1465 1014 26.1465C1013.52 26.1465 1013.09 26.0464 1012.71 25.8462C1012.33 25.646 1012 25.3652 1011.73 25.0039C1011.45 24.6426 1011.24 24.2178 1011.1 23.7295C1010.96 23.2363 1010.88 22.7017 1010.88 22.1255ZM1012.24 21.9717V22.1255C1012.24 22.521 1012.28 22.8921 1012.36 23.2388C1012.44 23.5854 1012.56 23.8906 1012.73 24.1543C1012.9 24.418 1013.12 24.6255 1013.38 24.7769C1013.65 24.9233 1013.96 24.9966 1014.33 24.9966C1014.78 24.9966 1015.15 24.9014 1015.44 24.7109C1015.73 24.5205 1015.97 24.269 1016.14 23.9565C1016.31 23.644 1016.45 23.3047 1016.55 22.9385V21.1733C1016.49 20.9048 1016.41 20.646 1016.3 20.397C1016.19 20.1431 1016.05 19.9185 1015.87 19.7231C1015.7 19.5229 1015.49 19.3643 1015.24 19.2471C1014.98 19.1299 1014.68 19.0713 1014.34 19.0713C1013.97 19.0713 1013.65 19.1494 1013.38 19.3057C1013.12 19.457 1012.9 19.667 1012.73 19.9355C1012.56 20.1992 1012.44 20.5068 1012.36 20.8584C1012.28 21.2051 1012.24 21.5762 1012.24 21.9717ZM1023.24 26.1465C1022.69 26.1465 1022.19 26.0537 1021.74 25.8682C1021.29 25.6777 1020.91 25.4116 1020.59 25.0698C1020.27 24.728 1020.03 24.3228 1019.85 23.854C1019.68 23.3853 1019.6 22.8726 1019.6 22.3159V22.0083C1019.6 21.3638 1019.69 20.79 1019.88 20.2871C1020.07 19.7793 1020.33 19.3496 1020.66 18.998C1020.99 18.6465 1021.36 18.3804 1021.77 18.1997C1022.19 18.019 1022.62 17.9287 1023.06 17.9287C1023.63 17.9287 1024.12 18.0264 1024.53 18.2217C1024.94 18.417 1025.28 18.6904 1025.55 19.042C1025.81 19.3887 1026 19.7988 1026.13 20.2725C1026.26 20.7412 1026.32 21.2539 1026.32 21.8105V22.4185H1020.4V21.3125H1024.97V21.21C1024.95 20.8584 1024.87 20.5166 1024.75 20.1846C1024.63 19.8525 1024.43 19.5791 1024.16 19.3643C1023.89 19.1494 1023.53 19.042 1023.06 19.042C1022.75 19.042 1022.47 19.1079 1022.21 19.2397C1021.95 19.3667 1021.73 19.5571 1021.55 19.811C1021.36 20.0649 1021.22 20.375 1021.11 20.7412C1021.01 21.1074 1020.96 21.5298 1020.96 22.0083V22.3159C1020.96 22.6919 1021.01 23.0459 1021.11 23.3779C1021.22 23.7051 1021.38 23.9932 1021.58 24.2422C1021.78 24.4912 1022.03 24.6865 1022.32 24.8281C1022.61 24.9697 1022.94 25.0405 1023.31 25.0405C1023.79 25.0405 1024.2 24.9429 1024.53 24.7476C1024.86 24.5522 1025.15 24.291 1025.4 23.9639L1026.22 24.6157C1026.05 24.8745 1025.83 25.1211 1025.57 25.3555C1025.3 25.5898 1024.98 25.7803 1024.59 25.9268C1024.21 26.0732 1023.76 26.1465 1023.24 26.1465ZM1032.84 23.8979C1032.84 23.7026 1032.79 23.522 1032.71 23.356C1032.62 23.1851 1032.45 23.0312 1032.19 22.8945C1031.93 22.7529 1031.54 22.6309 1031.01 22.5283C1030.57 22.4355 1030.18 22.3257 1029.82 22.1987C1029.47 22.0718 1029.17 21.918 1028.92 21.7373C1028.68 21.5566 1028.49 21.3442 1028.36 21.1001C1028.22 20.856 1028.16 20.5703 1028.16 20.2432C1028.16 19.9307 1028.23 19.6353 1028.36 19.3569C1028.5 19.0786 1028.7 18.832 1028.96 18.6172C1029.22 18.4023 1029.53 18.2339 1029.89 18.1118C1030.25 17.9897 1030.65 17.9287 1031.09 17.9287C1031.73 17.9287 1032.27 18.041 1032.72 18.2656C1033.17 18.4902 1033.51 18.7905 1033.75 19.1665C1033.99 19.5376 1034.11 19.9502 1034.11 20.4043H1032.76C1032.76 20.1846 1032.69 19.9722 1032.56 19.7671C1032.43 19.5571 1032.24 19.3838 1032 19.2471C1031.75 19.1104 1031.45 19.042 1031.09 19.042C1030.72 19.042 1030.41 19.1006 1030.18 19.2178C1029.95 19.3301 1029.78 19.4741 1029.67 19.6499C1029.57 19.8257 1029.52 20.0112 1029.52 20.2065C1029.52 20.353 1029.54 20.4849 1029.59 20.6021C1029.65 20.7144 1029.74 20.8193 1029.87 20.917C1030 21.0098 1030.19 21.0977 1030.43 21.1807C1030.67 21.2637 1030.97 21.3467 1031.34 21.4297C1031.99 21.5762 1032.53 21.752 1032.95 21.957C1033.37 22.1621 1033.68 22.4136 1033.89 22.7114C1034.09 23.0093 1034.19 23.3706 1034.19 23.7954C1034.19 24.1421 1034.12 24.4595 1033.97 24.7476C1033.83 25.0356 1033.62 25.2847 1033.35 25.4946C1033.08 25.6997 1032.76 25.8608 1032.38 25.978C1032.01 26.0903 1031.6 26.1465 1031.13 26.1465C1030.43 26.1465 1029.84 26.022 1029.36 25.7729C1028.88 25.5239 1028.51 25.2017 1028.26 24.8062C1028.01 24.4106 1027.89 23.9932 1027.89 23.5537H1029.25C1029.27 23.9248 1029.38 24.2202 1029.57 24.4399C1029.77 24.6548 1030.01 24.8086 1030.29 24.9014C1030.57 24.9893 1030.85 25.0332 1031.13 25.0332C1031.5 25.0332 1031.81 24.9844 1032.06 24.8867C1032.32 24.7891 1032.51 24.6548 1032.64 24.4839C1032.77 24.313 1032.84 24.1177 1032.84 23.8979Z" fill="#DDE4E4"/>
<path d="M195.298 14.7578V24H194.073V14.7578H195.298ZM199.17 18.9155V19.9185H195.031V18.9155H199.17ZM199.798 14.7578V15.7607H195.031V14.7578H199.798ZM202.636 14.25V24H201.456V14.25H202.636ZM204.491 20.6421V20.4961C204.491 20.001 204.563 19.5418 204.706 19.1187C204.85 18.6912 205.058 18.321 205.329 18.0078C205.599 17.6904 205.927 17.445 206.312 17.2715C206.698 17.0938 207.129 17.0049 207.607 17.0049C208.09 17.0049 208.524 17.0938 208.909 17.2715C209.298 17.445 209.628 17.6904 209.899 18.0078C210.174 18.321 210.383 18.6912 210.527 19.1187C210.671 19.5418 210.743 20.001 210.743 20.4961V20.6421C210.743 21.1372 210.671 21.5964 210.527 22.0195C210.383 22.4427 210.174 22.813 209.899 23.1304C209.628 23.4435 209.3 23.689 208.915 23.8667C208.534 24.0402 208.102 24.127 207.62 24.127C207.138 24.127 206.704 24.0402 206.319 23.8667C205.934 23.689 205.604 23.4435 205.329 23.1304C205.058 22.813 204.85 22.4427 204.706 22.0195C204.563 21.5964 204.491 21.1372 204.491 20.6421ZM205.665 20.4961V20.6421C205.665 20.9849 205.705 21.3086 205.786 21.6133C205.866 21.9137 205.987 22.1803 206.147 22.4131C206.312 22.6458 206.518 22.8299 206.763 22.9653C207.009 23.0965 207.294 23.1621 207.62 23.1621C207.942 23.1621 208.223 23.0965 208.464 22.9653C208.71 22.8299 208.913 22.6458 209.074 22.4131C209.234 22.1803 209.355 21.9137 209.435 21.6133C209.52 21.3086 209.562 20.9849 209.562 20.6421V20.4961C209.562 20.1576 209.52 19.8381 209.435 19.5376C209.355 19.2329 209.232 18.9642 209.067 18.7314C208.907 18.4945 208.703 18.3083 208.458 18.1729C208.217 18.0374 207.933 17.9697 207.607 17.9697C207.286 17.9697 207.002 18.0374 206.757 18.1729C206.516 18.3083 206.312 18.4945 206.147 18.7314C205.987 18.9642 205.866 19.2329 205.786 19.5376C205.705 19.8381 205.665 20.1576 205.665 20.4961ZM214.235 22.7812L216 17.1318H216.774L216.622 18.2554L214.825 24H214.07L214.235 22.7812ZM213.048 17.1318L214.552 22.8447L214.66 24H213.867L211.874 17.1318H213.048ZM218.463 22.8003L219.897 17.1318H221.065L219.072 24H218.285L218.463 22.8003ZM216.945 17.1318L218.672 22.686L218.869 24H218.12L216.273 18.2427L216.12 17.1318H216.945ZM222.545 14.25H223.725V22.667L223.624 24H222.545V14.25ZM228.366 20.5088V20.6421C228.366 21.1414 228.306 21.6048 228.188 22.0322C228.069 22.4554 227.896 22.8236 227.667 23.1367C227.439 23.4499 227.16 23.6932 226.829 23.8667C226.499 24.0402 226.121 24.127 225.693 24.127C225.257 24.127 224.874 24.0529 224.544 23.9048C224.218 23.7524 223.943 23.5345 223.719 23.251C223.495 22.9674 223.315 22.6247 223.18 22.2227C223.048 21.8206 222.957 21.3678 222.907 20.8643V20.2803C222.957 19.7725 223.048 19.3175 223.18 18.9155C223.315 18.5135 223.495 18.1707 223.719 17.8872C223.943 17.5994 224.218 17.3815 224.544 17.2334C224.87 17.0811 225.249 17.0049 225.681 17.0049C226.112 17.0049 226.495 17.0895 226.829 17.2588C227.164 17.4238 227.443 17.6608 227.667 17.9697C227.896 18.2786 228.069 18.6489 228.188 19.0806C228.306 19.508 228.366 19.984 228.366 20.5088ZM227.185 20.6421V20.5088C227.185 20.166 227.153 19.8444 227.09 19.5439C227.026 19.2393 226.925 18.9727 226.785 18.7441C226.645 18.5114 226.461 18.3294 226.233 18.1982C226.004 18.0628 225.723 17.9951 225.389 17.9951C225.092 17.9951 224.834 18.0459 224.614 18.1475C224.398 18.249 224.214 18.3866 224.062 18.5601C223.91 18.7293 223.785 18.924 223.687 19.144C223.594 19.3599 223.524 19.5841 223.478 19.8169V21.3467C223.546 21.6429 223.656 21.9285 223.808 22.2036C223.965 22.4744 224.172 22.6966 224.43 22.8701C224.692 23.0436 225.016 23.1304 225.401 23.1304C225.719 23.1304 225.989 23.0669 226.214 22.9399C226.442 22.8088 226.626 22.6289 226.766 22.4004C226.91 22.1719 227.016 21.9074 227.083 21.6069C227.151 21.3065 227.185 20.9849 227.185 20.6421ZM234.181 22.8257V19.29C234.181 19.0192 234.126 18.7843 234.016 18.5854C233.91 18.3823 233.749 18.2257 233.533 18.1157C233.317 18.0057 233.051 17.9507 232.733 17.9507C232.437 17.9507 232.177 18.0015 231.953 18.103C231.733 18.2046 231.559 18.3379 231.432 18.5029C231.31 18.668 231.248 18.8457 231.248 19.0361H230.074C230.074 18.7907 230.137 18.5474 230.264 18.3062C230.391 18.0649 230.573 17.847 230.81 17.6523C231.051 17.4535 231.339 17.2969 231.673 17.1826C232.012 17.0641 232.389 17.0049 232.803 17.0049C233.303 17.0049 233.743 17.0895 234.124 17.2588C234.509 17.4281 234.809 17.6841 235.025 18.0269C235.245 18.3654 235.355 18.7907 235.355 19.3027V22.502C235.355 22.7305 235.374 22.9738 235.412 23.2319C235.455 23.4901 235.516 23.7122 235.596 23.8984V24H234.371C234.312 23.8646 234.265 23.6847 234.232 23.4604C234.198 23.2319 234.181 23.0203 234.181 22.8257ZM234.384 19.8359L234.397 20.6611H233.21C232.875 20.6611 232.577 20.6886 232.315 20.7437C232.052 20.7944 231.832 20.8727 231.654 20.9785C231.477 21.0843 231.341 21.2176 231.248 21.3784C231.155 21.535 231.108 21.7191 231.108 21.9307C231.108 22.1465 231.157 22.3433 231.254 22.521C231.352 22.6987 231.498 22.8405 231.692 22.9463C231.891 23.0479 232.135 23.0986 232.422 23.0986C232.782 23.0986 233.1 23.0225 233.375 22.8701C233.65 22.7178 233.868 22.5316 234.028 22.3115C234.193 22.0915 234.282 21.8778 234.295 21.6704L234.796 22.2354C234.767 22.4131 234.686 22.6099 234.555 22.8257C234.424 23.0415 234.248 23.2489 234.028 23.4478C233.813 23.6424 233.554 23.8053 233.254 23.9365C232.958 24.0635 232.623 24.127 232.251 24.127C231.786 24.127 231.377 24.036 231.026 23.854C230.679 23.672 230.408 23.4287 230.213 23.124C230.023 22.8151 229.928 22.4702 229.928 22.0894C229.928 21.7212 230 21.3975 230.144 21.1182C230.288 20.8346 230.495 20.5998 230.766 20.4136C231.037 20.2231 231.362 20.0793 231.743 19.9819C232.124 19.8846 232.549 19.8359 233.019 19.8359H234.384ZM241.481 22.1782C241.481 22.009 241.443 21.8524 241.367 21.7085C241.295 21.5604 241.145 21.4271 240.916 21.3086C240.692 21.1859 240.354 21.0801 239.901 20.9912C239.52 20.9108 239.175 20.8156 238.866 20.7056C238.561 20.5955 238.301 20.4622 238.085 20.3057C237.874 20.1491 237.711 19.965 237.597 19.7534C237.482 19.5418 237.425 19.2943 237.425 19.0107C237.425 18.7399 237.484 18.4839 237.603 18.2427C237.726 18.0015 237.897 17.7878 238.117 17.6016C238.341 17.4154 238.61 17.2694 238.923 17.1636C239.236 17.0578 239.585 17.0049 239.971 17.0049C240.521 17.0049 240.99 17.1022 241.38 17.2969C241.769 17.4915 242.067 17.7518 242.275 18.0776C242.482 18.3993 242.586 18.7568 242.586 19.1504H241.411C241.411 18.96 241.354 18.7759 241.24 18.5981C241.13 18.4162 240.967 18.266 240.751 18.1475C240.54 18.029 240.279 17.9697 239.971 17.9697C239.645 17.9697 239.38 18.0205 239.177 18.1221C238.978 18.2194 238.832 18.3442 238.739 18.4966C238.65 18.6489 238.606 18.8097 238.606 18.979C238.606 19.106 238.627 19.2202 238.669 19.3218C238.716 19.4191 238.796 19.5101 238.91 19.5947C239.025 19.6751 239.186 19.7513 239.393 19.8232C239.6 19.8952 239.865 19.9671 240.186 20.0391C240.749 20.166 241.213 20.3184 241.576 20.4961C241.94 20.6738 242.211 20.8918 242.389 21.1499C242.567 21.408 242.656 21.7212 242.656 22.0894C242.656 22.3898 242.592 22.6649 242.465 22.9146C242.342 23.1642 242.163 23.38 241.926 23.562C241.693 23.7397 241.414 23.8794 241.088 23.981C240.766 24.0783 240.404 24.127 240.002 24.127C239.397 24.127 238.885 24.019 238.466 23.8032C238.047 23.5874 237.73 23.3081 237.514 22.9653C237.298 22.6226 237.19 22.2607 237.19 21.8799H238.371C238.388 22.2015 238.481 22.4575 238.65 22.6479C238.819 22.8341 239.027 22.9674 239.272 23.0479C239.518 23.124 239.761 23.1621 240.002 23.1621C240.324 23.1621 240.593 23.1198 240.808 23.0352C241.028 22.9505 241.196 22.8341 241.31 22.686C241.424 22.5379 241.481 22.3687 241.481 22.1782ZM247.328 24.127C246.85 24.127 246.416 24.0465 246.027 23.8857C245.642 23.7207 245.31 23.4901 245.03 23.1938C244.755 22.8976 244.544 22.5464 244.396 22.1401C244.247 21.7339 244.173 21.2896 244.173 20.8071V20.5405C244.173 19.9819 244.256 19.4847 244.421 19.0488C244.586 18.6087 244.81 18.2363 245.094 17.9316C245.377 17.627 245.699 17.3963 246.059 17.2397C246.418 17.0832 246.791 17.0049 247.176 17.0049C247.667 17.0049 248.09 17.0895 248.445 17.2588C248.805 17.4281 249.099 17.665 249.328 17.9697C249.556 18.2702 249.725 18.6257 249.835 19.0361C249.946 19.4424 250.001 19.8867 250.001 20.3691V20.896H244.872V19.9375H248.826V19.8486C248.809 19.5439 248.746 19.2477 248.636 18.96C248.53 18.6722 248.361 18.4352 248.128 18.249C247.895 18.0628 247.578 17.9697 247.176 17.9697C246.909 17.9697 246.664 18.0269 246.439 18.1411C246.215 18.2511 246.023 18.4162 245.862 18.6362C245.701 18.8563 245.576 19.125 245.487 19.4424C245.398 19.7598 245.354 20.1258 245.354 20.5405V20.8071C245.354 21.133 245.398 21.4398 245.487 21.7275C245.58 22.0111 245.714 22.2607 245.887 22.4766C246.065 22.6924 246.279 22.8617 246.528 22.9844C246.782 23.1071 247.07 23.1685 247.392 23.1685C247.806 23.1685 248.158 23.0838 248.445 22.9146C248.733 22.7453 248.985 22.5189 249.201 22.2354L249.912 22.8003C249.764 23.0246 249.575 23.2383 249.347 23.4414C249.118 23.6445 248.837 23.8096 248.502 23.9365C248.172 24.0635 247.781 24.127 247.328 24.127Z" fill="#ADC9A6"/>
<path d="M343.504 21.207L345.338 14.7578H346.227L345.713 17.2651L343.739 24H342.856L343.504 21.207ZM341.606 14.7578L343.066 21.0801L343.504 24H342.628L340.387 14.7578H341.606ZM348.601 21.0737L350.029 14.7578H351.254L349.02 24H348.144L348.601 21.0737ZM346.36 14.7578L348.144 21.207L348.792 24H347.909L346.005 17.2651L345.484 14.7578H346.36ZM355.362 24.127C354.884 24.127 354.45 24.0465 354.061 23.8857C353.676 23.7207 353.343 23.4901 353.064 23.1938C352.789 22.8976 352.578 22.5464 352.429 22.1401C352.281 21.7339 352.207 21.2896 352.207 20.8071V20.5405C352.207 19.9819 352.29 19.4847 352.455 19.0488C352.62 18.6087 352.844 18.2363 353.128 17.9316C353.411 17.627 353.733 17.3963 354.092 17.2397C354.452 17.0832 354.825 17.0049 355.21 17.0049C355.701 17.0049 356.124 17.0895 356.479 17.2588C356.839 17.4281 357.133 17.665 357.362 17.9697C357.59 18.2702 357.759 18.6257 357.869 19.0361C357.979 19.4424 358.034 19.8867 358.034 20.3691V20.896H352.905V19.9375H356.86V19.8486C356.843 19.5439 356.78 19.2477 356.67 18.96C356.564 18.6722 356.395 18.4352 356.162 18.249C355.929 18.0628 355.612 17.9697 355.21 17.9697C354.943 17.9697 354.698 18.0269 354.473 18.1411C354.249 18.2511 354.057 18.4162 353.896 18.6362C353.735 18.8563 353.61 19.125 353.521 19.4424C353.432 19.7598 353.388 20.1258 353.388 20.5405V20.8071C353.388 21.133 353.432 21.4398 353.521 21.7275C353.614 22.0111 353.748 22.2607 353.921 22.4766C354.099 22.6924 354.313 22.8617 354.562 22.9844C354.816 23.1071 355.104 23.1685 355.426 23.1685C355.84 23.1685 356.191 23.0838 356.479 22.9146C356.767 22.7453 357.019 22.5189 357.235 22.2354L357.946 22.8003C357.797 23.0246 357.609 23.2383 357.381 23.4414C357.152 23.6445 356.871 23.8096 356.536 23.9365C356.206 24.0635 355.815 24.127 355.362 24.127ZM359.679 14.25H360.86V22.667L360.758 24H359.679V14.25ZM365.5 20.5088V20.6421C365.5 21.1414 365.441 21.6048 365.322 22.0322C365.204 22.4554 365.03 22.8236 364.802 23.1367C364.573 23.4499 364.294 23.6932 363.964 23.8667C363.634 24.0402 363.255 24.127 362.828 24.127C362.392 24.127 362.009 24.0529 361.679 23.9048C361.353 23.7524 361.078 23.5345 360.853 23.251C360.629 22.9674 360.449 22.6247 360.314 22.2227C360.183 21.8206 360.092 21.3678 360.041 20.8643V20.2803C360.092 19.7725 360.183 19.3175 360.314 18.9155C360.449 18.5135 360.629 18.1707 360.853 17.8872C361.078 17.5994 361.353 17.3815 361.679 17.2334C362.004 17.0811 362.383 17.0049 362.815 17.0049C363.247 17.0049 363.629 17.0895 363.964 17.2588C364.298 17.4238 364.577 17.6608 364.802 17.9697C365.03 18.2786 365.204 18.6489 365.322 19.0806C365.441 19.508 365.5 19.984 365.5 20.5088ZM364.319 20.6421V20.5088C364.319 20.166 364.288 19.8444 364.224 19.5439C364.161 19.2393 364.059 18.9727 363.919 18.7441C363.78 18.5114 363.596 18.3294 363.367 18.1982C363.139 18.0628 362.857 17.9951 362.523 17.9951C362.227 17.9951 361.969 18.0459 361.748 18.1475C361.533 18.249 361.349 18.3866 361.196 18.5601C361.044 18.7293 360.919 18.924 360.822 19.144C360.729 19.3599 360.659 19.5841 360.612 19.8169V21.3467C360.68 21.6429 360.79 21.9285 360.942 22.2036C361.099 22.4744 361.306 22.6966 361.564 22.8701C361.827 23.0436 362.15 23.1304 362.536 23.1304C362.853 23.1304 363.124 23.0669 363.348 22.9399C363.577 22.8088 363.761 22.6289 363.9 22.4004C364.044 22.1719 364.15 21.9074 364.218 21.6069C364.285 21.3065 364.319 20.9849 364.319 20.6421ZM369.017 24H367.843V16.4082C367.843 15.9131 367.934 15.4963 368.116 15.1577C368.302 14.8149 368.569 14.5568 368.916 14.3833C369.267 14.2056 369.692 14.1167 370.192 14.1167C370.378 14.1167 370.611 14.1357 370.89 14.1738C371.173 14.2119 371.474 14.2606 371.791 14.3198C372.113 14.3791 372.426 14.4404 372.731 14.5039L372.185 15.3545C371.783 15.2783 371.421 15.2212 371.099 15.1831C370.778 15.1408 370.505 15.1196 370.28 15.1196C370.005 15.1196 369.773 15.1704 369.582 15.272C369.396 15.3693 369.254 15.5132 369.157 15.7036C369.064 15.894 369.017 16.1289 369.017 16.4082V24ZM371.556 24V14.5039H372.731V24H371.556ZM370.477 17.1318V18.0332H366.757V17.1318H370.477ZM374.623 20.6421V20.4961C374.623 20.001 374.695 19.5418 374.839 19.1187C374.983 18.6912 375.19 18.321 375.461 18.0078C375.732 17.6904 376.06 17.445 376.445 17.2715C376.83 17.0938 377.261 17.0049 377.74 17.0049C378.222 17.0049 378.656 17.0938 379.041 17.2715C379.43 17.445 379.76 17.6904 380.031 18.0078C380.306 18.321 380.516 18.6912 380.66 19.1187C380.803 19.5418 380.875 20.001 380.875 20.4961V20.6421C380.875 21.1372 380.803 21.5964 380.66 22.0195C380.516 22.4427 380.306 22.813 380.031 23.1304C379.76 23.4435 379.432 23.689 379.047 23.8667C378.666 24.0402 378.235 24.127 377.752 24.127C377.27 24.127 376.836 24.0402 376.451 23.8667C376.066 23.689 375.736 23.4435 375.461 23.1304C375.19 22.813 374.983 22.4427 374.839 22.0195C374.695 21.5964 374.623 21.1372 374.623 20.6421ZM375.797 20.4961V20.6421C375.797 20.9849 375.837 21.3086 375.918 21.6133C375.998 21.9137 376.119 22.1803 376.28 22.4131C376.445 22.6458 376.65 22.8299 376.895 22.9653C377.141 23.0965 377.426 23.1621 377.752 23.1621C378.074 23.1621 378.355 23.0965 378.597 22.9653C378.842 22.8299 379.045 22.6458 379.206 22.4131C379.367 22.1803 379.487 21.9137 379.568 21.6133C379.652 21.3086 379.695 20.9849 379.695 20.6421V20.4961C379.695 20.1576 379.652 19.8381 379.568 19.5376C379.487 19.2329 379.365 18.9642 379.2 18.7314C379.039 18.4945 378.836 18.3083 378.59 18.1729C378.349 18.0374 378.065 17.9697 377.74 17.9697C377.418 17.9697 377.134 18.0374 376.889 18.1729C376.648 18.3083 376.445 18.4945 376.28 18.7314C376.119 18.9642 375.998 19.2329 375.918 19.5376C375.837 19.8381 375.797 20.1576 375.797 20.4961ZM384.367 22.7812L386.132 17.1318H386.906L386.754 18.2554L384.958 24H384.202L384.367 22.7812ZM383.18 17.1318L384.685 22.8447L384.793 24H383.999L382.006 17.1318H383.18ZM388.595 22.8003L390.029 17.1318H391.197L389.204 24H388.417L388.595 22.8003ZM387.078 17.1318L388.804 22.686L389.001 24H388.252L386.405 18.2427L386.253 17.1318H387.078Z" fill="#ADC9A6"/>
<path d="M84.2217 15.0469V26.8457H83.2031V15.0469H84.2217ZM96.1088 20.9121H97.1069C97.1069 21.6276 96.9018 22.1654 96.4916 22.5254C96.086 22.8809 95.5346 23.0586 94.8373 23.0586C94.3543 23.0586 93.935 22.9469 93.5795 22.7236C93.2286 22.5003 92.9552 22.1904 92.7592 21.7939C92.5678 21.3975 92.4721 20.9372 92.4721 20.4131V19.627C92.4721 19.1029 92.5678 18.6426 92.7592 18.2461C92.9552 17.8496 93.2286 17.5397 93.5795 17.3164C93.935 17.0931 94.3543 16.9814 94.8373 16.9814C95.5346 16.9814 96.0883 17.1592 96.4985 17.5146C96.9086 17.8701 97.1137 18.4056 97.1137 19.1211H96.1157C96.1157 18.6699 96.0063 18.3464 95.7875 18.1504C95.5733 17.9544 95.2566 17.8564 94.8373 17.8564C94.5366 17.8564 94.2836 17.9316 94.0786 18.082C93.8735 18.2324 93.7185 18.4421 93.6137 18.7109C93.5089 18.9753 93.4565 19.2783 93.4565 19.6201V20.4131C93.4565 20.7594 93.5089 21.0671 93.6137 21.3359C93.7185 21.6003 93.8735 21.8076 94.0786 21.958C94.2836 22.1084 94.5366 22.1836 94.8373 22.1836C95.2566 22.1836 95.5733 22.0856 95.7875 21.8896C96.0017 21.6937 96.1088 21.3678 96.1088 20.9121ZM90.8657 20.0166C90.8657 20.6227 90.9705 21.1878 91.1801 21.7119C91.3898 22.236 91.6814 22.694 92.0551 23.0859C92.4288 23.4779 92.8618 23.7832 93.3539 24.002C93.8461 24.2207 94.3725 24.3301 94.933 24.3301C95.4936 24.3301 96.0177 24.2207 96.5053 24.002C96.9975 23.7832 97.4282 23.4779 97.7973 23.0859C98.171 22.694 98.4627 22.236 98.6723 21.7119C98.8819 21.1878 98.9868 20.6227 98.9868 20.0166C98.9868 19.4059 98.8819 18.8408 98.6723 18.3213C98.4627 17.8018 98.171 17.3483 97.7973 16.9609C97.4282 16.569 96.9975 16.266 96.5053 16.0518C96.0177 15.833 95.4936 15.7236 94.933 15.7236C94.3725 15.7236 93.8461 15.833 93.3539 16.0518C92.8618 16.266 92.4288 16.569 92.0551 16.9609C91.6814 17.3483 91.3898 17.8018 91.1801 18.3213C90.9705 18.8408 90.8657 19.4059 90.8657 20.0166ZM90.0795 20.0166C90.0795 19.292 90.2049 18.6198 90.4555 18C90.7062 17.3802 91.0548 16.8402 91.5014 16.3799C91.948 15.915 92.463 15.555 93.0463 15.2998C93.6342 15.04 94.2631 14.9102 94.933 14.9102C95.603 14.9102 96.2296 15.04 96.8129 15.2998C97.4008 15.555 97.9158 15.915 98.3579 16.3799C98.8045 16.8402 99.1531 17.3802 99.4037 18C99.6544 18.6198 99.7797 19.292 99.7797 20.0166C99.7797 20.7412 99.6544 21.4134 99.4037 22.0332C99.1531 22.653 98.8045 23.1976 98.3579 23.667C97.9158 24.1318 97.4008 24.4941 96.8129 24.7539C96.2296 25.0137 95.603 25.1436 94.933 25.1436C94.2631 25.1436 93.6342 25.0137 93.0463 24.7539C92.463 24.4941 91.948 24.1318 91.5014 23.667C91.0548 23.1976 90.7062 22.653 90.4555 22.0332C90.2049 21.4134 90.0795 20.7412 90.0795 20.0166ZM109.049 15.0469V25H107.75V15.0469H109.049ZM112.248 15.0469V16.127H104.558V15.0469H112.248ZM116.199 25.1367C115.684 25.1367 115.217 25.0501 114.797 24.877C114.383 24.6992 114.025 24.4508 113.724 24.1318C113.428 23.8128 113.2 23.4346 113.041 22.9971C112.881 22.5596 112.801 22.0811 112.801 21.5615V21.2744C112.801 20.6729 112.89 20.1374 113.068 19.668C113.246 19.194 113.487 18.793 113.793 18.4648C114.098 18.1367 114.444 17.8883 114.832 17.7197C115.219 17.5511 115.62 17.4668 116.035 17.4668C116.563 17.4668 117.019 17.5579 117.402 17.7402C117.789 17.9225 118.106 18.1777 118.352 18.5059C118.598 18.8294 118.781 19.2122 118.899 19.6543C119.018 20.0918 119.077 20.5703 119.077 21.0898V21.6572H113.553V20.625H117.812V20.5293C117.794 20.2012 117.726 19.8822 117.607 19.5723C117.493 19.2624 117.311 19.0072 117.06 18.8066C116.81 18.6061 116.468 18.5059 116.035 18.5059C115.748 18.5059 115.483 18.5674 115.242 18.6904C115 18.8089 114.793 18.9867 114.62 19.2236C114.447 19.4606 114.312 19.75 114.216 20.0918C114.121 20.4336 114.073 20.8278 114.073 21.2744V21.5615C114.073 21.9124 114.121 22.2428 114.216 22.5527C114.317 22.8581 114.46 23.127 114.647 23.3594C114.838 23.5918 115.069 23.7741 115.337 23.9062C115.611 24.0384 115.921 24.1045 116.267 24.1045C116.714 24.1045 117.092 24.0133 117.402 23.8311C117.712 23.6488 117.983 23.4049 118.215 23.0996L118.981 23.708C118.822 23.9495 118.619 24.1797 118.373 24.3984C118.127 24.6172 117.824 24.7949 117.463 24.9316C117.108 25.0684 116.686 25.1367 116.199 25.1367ZM122.091 19.0732V25H120.82V17.6035H122.023L122.091 19.0732ZM121.831 21.0215L121.243 21.001C121.248 20.4951 121.314 20.028 121.442 19.5996C121.569 19.1667 121.758 18.7907 122.009 18.4717C122.26 18.1527 122.572 17.9066 122.946 17.7334C123.319 17.5557 123.752 17.4668 124.244 17.4668C124.591 17.4668 124.91 17.5169 125.201 17.6172C125.493 17.7129 125.746 17.8656 125.96 18.0752C126.174 18.2848 126.341 18.5537 126.459 18.8818C126.578 19.21 126.637 19.6064 126.637 20.0713V25H125.372V20.1328C125.372 19.7454 125.306 19.4355 125.174 19.2031C125.047 18.9707 124.864 18.8021 124.627 18.6973C124.39 18.5879 124.112 18.5332 123.793 18.5332C123.42 18.5332 123.107 18.5993 122.857 18.7314C122.606 18.8636 122.406 19.0459 122.255 19.2783C122.105 19.5107 121.995 19.7773 121.927 20.0781C121.863 20.3743 121.831 20.6888 121.831 21.0215ZM126.623 20.3242L125.776 20.584C125.78 20.1784 125.846 19.7887 125.974 19.415C126.106 19.0413 126.295 18.7087 126.541 18.417C126.792 18.1253 127.1 17.8952 127.464 17.7266C127.829 17.5534 128.246 17.4668 128.715 17.4668C129.112 17.4668 129.463 17.5192 129.768 17.624C130.078 17.7288 130.338 17.8906 130.547 18.1094C130.761 18.3236 130.923 18.5993 131.033 18.9365C131.142 19.2738 131.197 19.6748 131.197 20.1396V25H129.925V20.126C129.925 19.7113 129.859 19.39 129.727 19.1621C129.599 18.9297 129.417 18.7679 129.18 18.6768C128.948 18.5811 128.67 18.5332 128.346 18.5332C128.068 18.5332 127.822 18.5811 127.608 18.6768C127.394 18.7725 127.214 18.9046 127.068 19.0732C126.922 19.2373 126.81 19.4264 126.733 19.6406C126.66 19.8548 126.623 20.0827 126.623 20.3242ZM134.655 19.0254V27.8438H133.384V17.6035H134.546L134.655 19.0254ZM139.639 21.2402V21.3838C139.639 21.9215 139.575 22.4206 139.447 22.8809C139.32 23.3366 139.133 23.7331 138.887 24.0703C138.645 24.4076 138.347 24.6696 137.991 24.8564C137.636 25.0433 137.228 25.1367 136.768 25.1367C136.298 25.1367 135.884 25.0592 135.523 24.9043C135.163 24.7493 134.858 24.5238 134.607 24.2275C134.357 23.9313 134.156 23.5758 134.006 23.1611C133.86 22.7464 133.76 22.2793 133.705 21.7598V20.9941C133.76 20.4473 133.862 19.9574 134.013 19.5244C134.163 19.0915 134.361 18.7223 134.607 18.417C134.858 18.1071 135.161 17.8724 135.517 17.7129C135.872 17.5488 136.282 17.4668 136.747 17.4668C137.212 17.4668 137.624 17.5579 137.984 17.7402C138.344 17.918 138.647 18.1732 138.894 18.5059C139.14 18.8385 139.324 19.2373 139.447 19.7021C139.575 20.1624 139.639 20.6751 139.639 21.2402ZM138.367 21.3838V21.2402C138.367 20.8711 138.328 20.5247 138.251 20.2012C138.174 19.873 138.053 19.5859 137.889 19.3398C137.729 19.0892 137.524 18.8932 137.273 18.752C137.023 18.6061 136.724 18.5332 136.378 18.5332C136.059 18.5332 135.781 18.5879 135.544 18.6973C135.312 18.8066 135.113 18.9548 134.949 19.1416C134.785 19.3239 134.651 19.5335 134.546 19.7705C134.446 20.0029 134.37 20.2445 134.32 20.4951V22.2656C134.411 22.5846 134.539 22.8854 134.703 23.168C134.867 23.446 135.086 23.6715 135.359 23.8447C135.633 24.0133 135.977 24.0977 136.392 24.0977C136.733 24.0977 137.027 24.027 137.273 23.8857C137.524 23.7399 137.729 23.5417 137.889 23.291C138.053 23.0404 138.174 22.7533 138.251 22.4297C138.328 22.1016 138.367 21.7529 138.367 21.3838ZM142.906 14.5V25H141.635V14.5H142.906ZM149.578 23.7354V19.9277C149.578 19.6361 149.518 19.3831 149.4 19.1689C149.286 18.9502 149.113 18.7816 148.88 18.6631C148.648 18.5446 148.361 18.4854 148.019 18.4854C147.7 18.4854 147.42 18.54 147.178 18.6494C146.941 18.7588 146.754 18.9023 146.618 19.0801C146.485 19.2578 146.419 19.4492 146.419 19.6543H145.155C145.155 19.39 145.223 19.1279 145.36 18.8682C145.497 18.6084 145.693 18.3737 145.948 18.1641C146.208 17.9499 146.517 17.7812 146.877 17.6582C147.242 17.5306 147.648 17.4668 148.094 17.4668C148.632 17.4668 149.106 17.5579 149.516 17.7402C149.931 17.9225 150.254 18.1982 150.487 18.5674C150.724 18.932 150.842 19.39 150.842 19.9414V23.3867C150.842 23.6328 150.863 23.8949 150.904 24.1729C150.949 24.4508 151.015 24.6901 151.102 24.8906V25H149.783C149.719 24.8542 149.669 24.6605 149.632 24.4189C149.596 24.1729 149.578 23.945 149.578 23.7354ZM149.796 20.5156L149.81 21.4043H148.532C148.172 21.4043 147.85 21.4339 147.568 21.4932C147.285 21.5479 147.048 21.6322 146.857 21.7461C146.666 21.86 146.52 22.0036 146.419 22.1768C146.319 22.3454 146.269 22.5436 146.269 22.7715C146.269 23.0039 146.321 23.2158 146.426 23.4072C146.531 23.5986 146.688 23.7513 146.898 23.8652C147.112 23.9746 147.374 24.0293 147.684 24.0293C148.071 24.0293 148.413 23.9473 148.709 23.7832C149.006 23.6191 149.24 23.4186 149.414 23.1816C149.591 22.9447 149.687 22.7145 149.701 22.4912L150.241 23.0996C150.209 23.291 150.122 23.5029 149.981 23.7354C149.84 23.9678 149.651 24.1911 149.414 24.4053C149.181 24.6149 148.903 24.7904 148.58 24.9316C148.261 25.0684 147.901 25.1367 147.499 25.1367C146.998 25.1367 146.558 25.0387 146.18 24.8428C145.806 24.6468 145.515 24.3848 145.305 24.0566C145.1 23.724 144.998 23.3525 144.998 22.9424C144.998 22.5459 145.075 22.1973 145.23 21.8965C145.385 21.5911 145.608 21.3382 145.9 21.1377C146.192 20.9326 146.542 20.7777 146.953 20.6729C147.363 20.568 147.821 20.5156 148.327 20.5156H149.796ZM156.208 17.6035V18.5742H152.209V17.6035H156.208ZM153.563 15.8057H154.827V23.168C154.827 23.4186 154.866 23.6077 154.944 23.7354C155.021 23.863 155.121 23.9473 155.244 23.9883C155.367 24.0293 155.5 24.0498 155.641 24.0498C155.746 24.0498 155.855 24.0407 155.969 24.0225C156.087 23.9997 156.176 23.9814 156.236 23.9678L156.242 25C156.142 25.0319 156.01 25.0615 155.846 25.0889C155.686 25.1208 155.493 25.1367 155.265 25.1367C154.955 25.1367 154.67 25.0752 154.41 24.9521C154.151 24.8291 153.943 24.624 153.788 24.3369C153.638 24.0452 153.563 23.6533 153.563 23.1611V15.8057ZM161.041 25.1367C160.526 25.1367 160.059 25.0501 159.64 24.877C159.225 24.6992 158.867 24.4508 158.566 24.1318C158.27 23.8128 158.042 23.4346 157.883 22.9971C157.723 22.5596 157.643 22.0811 157.643 21.5615V21.2744C157.643 20.6729 157.732 20.1374 157.91 19.668C158.088 19.194 158.329 18.793 158.635 18.4648C158.94 18.1367 159.286 17.8883 159.674 17.7197C160.061 17.5511 160.462 17.4668 160.877 17.4668C161.406 17.4668 161.861 17.5579 162.244 17.7402C162.631 17.9225 162.948 18.1777 163.194 18.5059C163.44 18.8294 163.623 19.2122 163.741 19.6543C163.86 20.0918 163.919 20.5703 163.919 21.0898V21.6572H158.395V20.625H162.654V20.5293C162.636 20.2012 162.568 19.8822 162.449 19.5723C162.335 19.2624 162.153 19.0072 161.902 18.8066C161.652 18.6061 161.31 18.5059 160.877 18.5059C160.59 18.5059 160.325 18.5674 160.084 18.6904C159.842 18.8089 159.635 18.9867 159.462 19.2236C159.289 19.4606 159.154 19.75 159.059 20.0918C158.963 20.4336 158.915 20.8278 158.915 21.2744V21.5615C158.915 21.9124 158.963 22.2428 159.059 22.5527C159.159 22.8581 159.302 23.127 159.489 23.3594C159.681 23.5918 159.911 23.7741 160.18 23.9062C160.453 24.0384 160.763 24.1045 161.109 24.1045C161.556 24.1045 161.934 24.0133 162.244 23.8311C162.554 23.6488 162.825 23.4049 163.058 23.0996L163.823 23.708C163.664 23.9495 163.461 24.1797 163.215 24.3984C162.969 24.6172 162.666 24.7949 162.306 24.9316C161.95 25.0684 161.529 25.1367 161.041 25.1367ZM169.421 14.5H170.693V23.5645L170.583 25H169.421V14.5ZM175.69 21.2402V21.3838C175.69 21.9215 175.626 22.4206 175.498 22.8809C175.371 23.3366 175.184 23.7331 174.938 24.0703C174.692 24.4076 174.391 24.6696 174.036 24.8564C173.68 25.0433 173.272 25.1367 172.812 25.1367C172.342 25.1367 171.93 25.057 171.575 24.8975C171.224 24.7334 170.927 24.4987 170.686 24.1934C170.444 23.888 170.251 23.5189 170.105 23.0859C169.964 22.653 169.866 22.1654 169.811 21.623V20.9941C169.866 20.4473 169.964 19.9574 170.105 19.5244C170.251 19.0915 170.444 18.7223 170.686 18.417C170.927 18.1071 171.224 17.8724 171.575 17.7129C171.925 17.5488 172.333 17.4668 172.798 17.4668C173.263 17.4668 173.675 17.5579 174.036 17.7402C174.396 17.918 174.696 18.1732 174.938 18.5059C175.184 18.8385 175.371 19.2373 175.498 19.7021C175.626 20.1624 175.69 20.6751 175.69 21.2402ZM174.418 21.3838V21.2402C174.418 20.8711 174.384 20.5247 174.316 20.2012C174.247 19.873 174.138 19.5859 173.988 19.3398C173.837 19.0892 173.639 18.8932 173.393 18.752C173.147 18.6061 172.844 18.5332 172.484 18.5332C172.165 18.5332 171.887 18.5879 171.65 18.6973C171.417 18.8066 171.219 18.9548 171.055 19.1416C170.891 19.3239 170.757 19.5335 170.652 19.7705C170.551 20.0029 170.476 20.2445 170.426 20.4951V22.1426C170.499 22.4616 170.618 22.7692 170.782 23.0654C170.95 23.3571 171.174 23.5964 171.452 23.7832C171.734 23.9701 172.083 24.0635 172.497 24.0635C172.839 24.0635 173.131 23.9951 173.372 23.8584C173.619 23.7171 173.817 23.5234 173.967 23.2773C174.122 23.0312 174.236 22.7464 174.309 22.4229C174.382 22.0993 174.418 21.7529 174.418 21.3838ZM179.566 24.2344L181.623 17.6035H182.977L180.01 26.1416C179.941 26.3239 179.85 26.5199 179.736 26.7295C179.627 26.9437 179.486 27.1465 179.313 27.3379C179.139 27.5293 178.93 27.6842 178.684 27.8027C178.442 27.9258 178.153 27.9873 177.816 27.9873C177.715 27.9873 177.588 27.9736 177.433 27.9463C177.278 27.9189 177.168 27.8962 177.105 27.8779L177.098 26.8525C177.134 26.8571 177.191 26.8617 177.269 26.8662C177.351 26.8753 177.408 26.8799 177.44 26.8799C177.727 26.8799 177.97 26.8411 178.171 26.7637C178.371 26.6908 178.54 26.5654 178.677 26.3877C178.818 26.2145 178.939 25.9753 179.039 25.6699L179.566 24.2344ZM178.055 17.6035L179.976 23.3457L180.304 24.6787L179.395 25.1436L176.674 17.6035H178.055Z" fill="white"/>
<path d="M256.596 20.249V21.2881H253.26V20.249H256.596ZM265.728 21.0967H263.069V20.0234H265.728C266.243 20.0234 266.66 19.9414 266.979 19.7773C267.298 19.6133 267.53 19.3854 267.676 19.0938C267.827 18.8021 267.902 18.4694 267.902 18.0957C267.902 17.7539 267.827 17.4326 267.676 17.1318C267.53 16.8311 267.298 16.5895 266.979 16.4072C266.66 16.2204 266.243 16.127 265.728 16.127H263.376V25H262.057V15.0469H265.728C266.48 15.0469 267.116 15.1768 267.635 15.4365C268.155 15.6963 268.549 16.0563 268.818 16.5166C269.087 16.9723 269.221 17.4941 269.221 18.082C269.221 18.7201 269.087 19.2646 268.818 19.7158C268.549 20.167 268.155 20.5111 267.635 20.748C267.116 20.9805 266.48 21.0967 265.728 21.0967ZM270.547 21.3838V21.2266C270.547 20.6934 270.625 20.1989 270.779 19.7432C270.934 19.2829 271.158 18.8841 271.449 18.5469C271.741 18.2051 272.094 17.9408 272.509 17.7539C272.924 17.5625 273.389 17.4668 273.903 17.4668C274.423 17.4668 274.89 17.5625 275.305 17.7539C275.724 17.9408 276.08 18.2051 276.371 18.5469C276.667 18.8841 276.893 19.2829 277.048 19.7432C277.203 20.1989 277.28 20.6934 277.28 21.2266V21.3838C277.28 21.917 277.203 22.4115 277.048 22.8672C276.893 23.3229 276.667 23.7217 276.371 24.0635C276.08 24.4007 275.726 24.665 275.312 24.8564C274.902 25.0433 274.437 25.1367 273.917 25.1367C273.398 25.1367 272.93 25.0433 272.516 24.8564C272.101 24.665 271.746 24.4007 271.449 24.0635C271.158 23.7217 270.934 23.3229 270.779 22.8672C270.625 22.4115 270.547 21.917 270.547 21.3838ZM271.812 21.2266V21.3838C271.812 21.7529 271.855 22.1016 271.942 22.4297C272.028 22.7533 272.158 23.0404 272.331 23.291C272.509 23.5417 272.73 23.7399 272.994 23.8857C273.259 24.027 273.566 24.0977 273.917 24.0977C274.264 24.0977 274.567 24.027 274.826 23.8857C275.091 23.7399 275.309 23.5417 275.483 23.291C275.656 23.0404 275.786 22.7533 275.872 22.4297C275.963 22.1016 276.009 21.7529 276.009 21.3838V21.2266C276.009 20.862 275.963 20.5179 275.872 20.1943C275.786 19.8662 275.653 19.5768 275.476 19.3262C275.303 19.071 275.084 18.8704 274.819 18.7246C274.56 18.5788 274.254 18.5059 273.903 18.5059C273.557 18.5059 273.252 18.5788 272.987 18.7246C272.728 18.8704 272.509 19.071 272.331 19.3262C272.158 19.5768 272.028 19.8662 271.942 20.1943C271.855 20.5179 271.812 20.862 271.812 21.2266ZM281.019 23.6875L282.92 17.6035H283.754L283.59 18.8135L281.655 25H280.842L281.019 23.6875ZM279.741 17.6035L281.361 23.7559L281.477 25H280.623L278.476 17.6035H279.741ZM285.572 23.708L287.117 17.6035H288.375L286.228 25H285.381L285.572 23.708ZM283.938 17.6035L285.798 23.585L286.01 25H285.203L283.214 18.7998L283.05 17.6035H283.938ZM293.023 25.1367C292.508 25.1367 292.041 25.0501 291.622 24.877C291.207 24.6992 290.849 24.4508 290.548 24.1318C290.252 23.8128 290.024 23.4346 289.865 22.9971C289.705 22.5596 289.626 22.0811 289.626 21.5615V21.2744C289.626 20.6729 289.714 20.1374 289.892 19.668C290.07 19.194 290.311 18.793 290.617 18.4648C290.922 18.1367 291.268 17.8883 291.656 17.7197C292.043 17.5511 292.444 17.4668 292.859 17.4668C293.388 17.4668 293.843 17.5579 294.226 17.7402C294.614 17.9225 294.93 18.1777 295.176 18.5059C295.422 18.8294 295.605 19.2122 295.723 19.6543C295.842 20.0918 295.901 20.5703 295.901 21.0898V21.6572H290.378V20.625H294.636V20.5293C294.618 20.2012 294.55 19.8822 294.431 19.5723C294.317 19.2624 294.135 19.0072 293.884 18.8066C293.634 18.6061 293.292 18.5059 292.859 18.5059C292.572 18.5059 292.308 18.5674 292.066 18.6904C291.824 18.8089 291.617 18.9867 291.444 19.2236C291.271 19.4606 291.136 19.75 291.041 20.0918C290.945 20.4336 290.897 20.8278 290.897 21.2744V21.5615C290.897 21.9124 290.945 22.2428 291.041 22.5527C291.141 22.8581 291.284 23.127 291.471 23.3594C291.663 23.5918 291.893 23.7741 292.162 23.9062C292.435 24.0384 292.745 24.1045 293.091 24.1045C293.538 24.1045 293.916 24.0133 294.226 23.8311C294.536 23.6488 294.807 23.4049 295.04 23.0996L295.805 23.708C295.646 23.9495 295.443 24.1797 295.197 24.3984C294.951 24.6172 294.648 24.7949 294.288 24.9316C293.932 25.0684 293.511 25.1367 293.023 25.1367ZM298.922 18.7656V25H297.658V17.6035H298.888L298.922 18.7656ZM301.233 17.5625L301.226 18.7383C301.121 18.7155 301.021 18.7018 300.925 18.6973C300.834 18.6882 300.729 18.6836 300.611 18.6836C300.319 18.6836 300.062 18.7292 299.838 18.8203C299.615 18.9115 299.426 19.0391 299.271 19.2031C299.116 19.3672 298.993 19.5632 298.902 19.791C298.815 20.0143 298.758 20.2604 298.731 20.5293L298.375 20.7344C298.375 20.2878 298.419 19.8685 298.505 19.4766C298.596 19.0846 298.735 18.7383 298.922 18.4375C299.109 18.1322 299.346 17.8952 299.633 17.7266C299.925 17.5534 300.271 17.4668 300.672 17.4668C300.763 17.4668 300.868 17.4782 300.987 17.501C301.105 17.5192 301.187 17.5397 301.233 17.5625ZM305.614 25.1367C305.099 25.1367 304.632 25.0501 304.213 24.877C303.798 24.6992 303.44 24.4508 303.14 24.1318C302.843 23.8128 302.616 23.4346 302.456 22.9971C302.297 22.5596 302.217 22.0811 302.217 21.5615V21.2744C302.217 20.6729 302.306 20.1374 302.483 19.668C302.661 19.194 302.903 18.793 303.208 18.4648C303.513 18.1367 303.86 17.8883 304.247 17.7197C304.634 17.5511 305.036 17.4668 305.45 17.4668C305.979 17.4668 306.435 17.5579 306.817 17.7402C307.205 17.9225 307.522 18.1777 307.768 18.5059C308.014 18.8294 308.196 19.2122 308.314 19.6543C308.433 20.0918 308.492 20.5703 308.492 21.0898V21.6572H302.969V20.625H307.228V20.5293C307.209 20.2012 307.141 19.8822 307.022 19.5723C306.909 19.2624 306.726 19.0072 306.476 18.8066C306.225 18.6061 305.883 18.5059 305.45 18.5059C305.163 18.5059 304.899 18.5674 304.657 18.6904C304.416 18.8089 304.208 18.9867 304.035 19.2236C303.862 19.4606 303.728 19.75 303.632 20.0918C303.536 20.4336 303.488 20.8278 303.488 21.2744V21.5615C303.488 21.9124 303.536 22.2428 303.632 22.5527C303.732 22.8581 303.876 23.127 304.063 23.3594C304.254 23.5918 304.484 23.7741 304.753 23.9062C305.026 24.0384 305.336 24.1045 305.683 24.1045C306.129 24.1045 306.508 24.0133 306.817 23.8311C307.127 23.6488 307.398 23.4049 307.631 23.0996L308.397 23.708C308.237 23.9495 308.034 24.1797 307.788 24.3984C307.542 24.6172 307.239 24.7949 306.879 24.9316C306.523 25.0684 306.102 25.1367 305.614 25.1367ZM314.911 23.5645V14.5H316.182V25H315.02L314.911 23.5645ZM309.934 21.3838V21.2402C309.934 20.6751 310.003 20.1624 310.139 19.7021C310.281 19.2373 310.479 18.8385 310.734 18.5059C310.994 18.1732 311.302 17.918 311.657 17.7402C312.017 17.5579 312.418 17.4668 312.86 17.4668C313.325 17.4668 313.731 17.5488 314.077 17.7129C314.428 17.8724 314.724 18.1071 314.966 18.417C315.212 18.7223 315.405 19.0915 315.547 19.5244C315.688 19.9574 315.786 20.4473 315.841 20.9941V21.623C315.79 22.1654 315.692 22.653 315.547 23.0859C315.405 23.5189 315.212 23.888 314.966 24.1934C314.724 24.4987 314.428 24.7334 314.077 24.8975C313.726 25.057 313.316 25.1367 312.846 25.1367C312.414 25.1367 312.017 25.0433 311.657 24.8564C311.302 24.6696 310.994 24.4076 310.734 24.0703C310.479 23.7331 310.281 23.3366 310.139 22.8809C310.003 22.4206 309.934 21.9215 309.934 21.3838ZM311.206 21.2402V21.3838C311.206 21.7529 311.242 22.0993 311.315 22.4229C311.393 22.7464 311.511 23.0312 311.671 23.2773C311.83 23.5234 312.033 23.7171 312.279 23.8584C312.525 23.9951 312.819 24.0635 313.161 24.0635C313.58 24.0635 313.924 23.9746 314.193 23.7969C314.467 23.6191 314.685 23.3844 314.849 23.0928C315.013 22.8011 315.141 22.4844 315.232 22.1426V20.4951C315.178 20.2445 315.098 20.0029 314.993 19.7705C314.893 19.5335 314.761 19.3239 314.596 19.1416C314.437 18.9548 314.239 18.8066 314.002 18.6973C313.769 18.5879 313.494 18.5332 313.175 18.5332C312.828 18.5332 312.53 18.6061 312.279 18.752C312.033 18.8932 311.83 19.0892 311.671 19.3398C311.511 19.5859 311.393 19.873 311.315 20.2012C311.242 20.5247 311.206 20.8711 311.206 21.2402ZM322.177 14.5H323.448V23.5645L323.339 25H322.177V14.5ZM328.446 21.2402V21.3838C328.446 21.9215 328.382 22.4206 328.254 22.8809C328.127 23.3366 327.94 23.7331 327.694 24.0703C327.447 24.4076 327.147 24.6696 326.791 24.8564C326.436 25.0433 326.028 25.1367 325.568 25.1367C325.098 25.1367 324.686 25.057 324.33 24.8975C323.979 24.7334 323.683 24.4987 323.442 24.1934C323.2 23.888 323.006 23.5189 322.861 23.0859C322.719 22.653 322.621 22.1654 322.567 21.623V20.9941C322.621 20.4473 322.719 19.9574 322.861 19.5244C323.006 19.0915 323.2 18.7223 323.442 18.417C323.683 18.1071 323.979 17.8724 324.33 17.7129C324.681 17.5488 325.089 17.4668 325.554 17.4668C326.019 17.4668 326.431 17.5579 326.791 17.7402C327.151 17.918 327.452 18.1732 327.694 18.5059C327.94 18.8385 328.127 19.2373 328.254 19.7021C328.382 20.1624 328.446 20.6751 328.446 21.2402ZM327.174 21.3838V21.2402C327.174 20.8711 327.14 20.5247 327.071 20.2012C327.003 19.873 326.894 19.5859 326.743 19.3398C326.593 19.0892 326.395 18.8932 326.149 18.752C325.903 18.6061 325.599 18.5332 325.239 18.5332C324.92 18.5332 324.642 18.5879 324.405 18.6973C324.173 18.8066 323.975 18.9548 323.811 19.1416C323.647 19.3239 323.512 19.5335 323.407 19.7705C323.307 20.0029 323.232 20.2445 323.182 20.4951V22.1426C323.255 22.4616 323.373 22.7692 323.537 23.0654C323.706 23.3571 323.929 23.5964 324.207 23.7832C324.49 23.9701 324.838 24.0635 325.253 24.0635C325.595 24.0635 325.887 23.9951 326.128 23.8584C326.374 23.7171 326.572 23.5234 326.723 23.2773C326.878 23.0312 326.992 22.7464 327.065 22.4229C327.138 22.0993 327.174 21.7529 327.174 21.3838ZM332.321 24.2344L334.379 17.6035H335.732L332.766 26.1416C332.697 26.3239 332.606 26.5199 332.492 26.7295C332.383 26.9437 332.241 27.1465 332.068 27.3379C331.895 27.5293 331.685 27.6842 331.439 27.8027C331.198 27.9258 330.908 27.9873 330.571 27.9873C330.471 27.9873 330.343 27.9736 330.188 27.9463C330.033 27.9189 329.924 27.8962 329.86 27.8779L329.853 26.8525C329.89 26.8571 329.947 26.8617 330.024 26.8662C330.106 26.8753 330.163 26.8799 330.195 26.8799C330.482 26.8799 330.726 26.8411 330.927 26.7637C331.127 26.6908 331.296 26.5654 331.433 26.3877C331.574 26.2145 331.695 25.9753 331.795 25.6699L332.321 24.2344ZM330.81 17.6035L332.731 23.3457L333.059 24.6787L332.15 25.1436L329.43 17.6035H330.81Z" fill="white"/>
<path d="M16.9112 10.917H19.4595V30.0837H16.9112V10.917Z" fill="#84A17D"/>
<path d="M0 14.5107H14.3629V19.3024H0V14.5107Z" fill="#84A17D"/>
<path d="M5.44403 21.6982H14.3629V26.4899H5.44403V21.6982Z" fill="#84A17D"/>
<path d="M29.4609 27.1459H26.7907L32.131 12.5449H34.7809L40.1212 27.1459H37.3904L36.1969 23.7703H30.6746L29.4609 27.1459ZM33.1222 16.8993L31.423 21.6131H35.4485L33.7493 16.8993C33.6953 16.6995 33.6346 16.4998 33.5672 16.3C33.4998 16.1003 33.4593 15.9272 33.4458 15.7807C33.4189 15.9139 33.3717 16.087 33.3043 16.3C33.2503 16.4998 33.1896 16.6995 33.1222 16.8993Z" fill="#F4F5F6"/>
<path d="M43.6949 27.1467H41.2472V12.2861H43.6949V27.1467Z" fill="#F4F5F6"/>
<path d="M45.879 27.1459V17.2788H48.3469V27.1459H45.879ZM47.0927 15.3014C46.6747 15.3014 46.3173 15.1616 46.0207 14.882C45.7374 14.589 45.5959 14.2361 45.5959 13.8233C45.5959 13.4105 45.7374 13.0643 46.0207 12.7847C46.3173 12.5051 46.6747 12.3652 47.0927 12.3652C47.5108 12.3652 47.8614 12.5051 48.1446 12.7847C48.4413 13.0643 48.5896 13.4105 48.5896 13.8233C48.5896 14.2361 48.4413 14.589 48.1446 14.882C47.8614 15.1616 47.5108 15.3014 47.0927 15.3014Z" fill="#F4F5F6"/>
<path d="M49.9257 21.993C49.9257 21.0342 50.1212 20.182 50.5124 19.4363C50.9166 18.6773 51.4766 18.0781 52.1912 17.6386C52.9059 17.1992 53.7354 16.9795 54.6791 16.9795C55.529 16.9795 56.2573 17.1659 56.8639 17.5388C57.4706 17.8983 57.8958 18.4043 58.1385 19.0568L57.8754 19.2765L58.0777 17.2791H60.3637V26.6469C60.3637 27.7388 60.1477 28.6842 59.7162 29.4832C59.2983 30.2954 58.698 30.9147 57.9157 31.3407C57.1471 31.7802 56.2169 31.9999 55.1243 31.9999C53.695 31.9999 52.5216 31.6204 51.6045 30.8614C50.6875 30.1024 50.148 29.0637 49.9865 27.7455H52.4544C52.5352 28.3846 52.8047 28.884 53.2635 29.2435C53.7353 29.603 54.3556 29.7828 55.1243 29.7828C55.9742 29.7828 56.6484 29.5364 57.1471 29.0438C57.6598 28.5644 57.9157 27.9119 57.9157 27.0863V24.6295L58.1989 24.8892C57.9561 25.515 57.5115 26.0144 56.8639 26.3872C56.2169 26.76 55.4682 26.9465 54.6188 26.9465C53.6745 26.9465 52.8519 26.7335 52.1509 26.3073C51.4493 25.8812 50.9035 25.2953 50.5124 24.5496C50.1212 23.8039 49.9257 22.9517 49.9257 21.993ZM52.4136 21.933C52.4136 22.4923 52.5216 22.9916 52.7376 23.4311C52.9667 23.8572 53.2834 24.1967 53.6882 24.4497C54.0929 24.7027 54.5648 24.8292 55.1043 24.8292C55.6706 24.8292 56.1561 24.7094 56.5604 24.4697C56.9788 24.2167 57.2955 23.8771 57.5115 23.4511C57.7406 23.0116 57.8554 22.5056 57.8554 21.933C57.8554 21.3605 57.7474 20.8677 57.5314 20.4549C57.3159 20.0289 56.9987 19.6959 56.5808 19.4563C56.1761 19.2166 55.6842 19.0967 55.1043 19.0967C54.5512 19.0967 54.0725 19.2232 53.6677 19.4762C53.2635 19.7159 52.9531 20.0488 52.7376 20.4749C52.5216 20.901 52.4136 21.3871 52.4136 21.933Z" fill="#F4F5F6"/>
<path d="M64.981 27.1462H62.513V17.2791H64.7986L65.0009 18.5574C65.3113 18.0648 65.7496 17.6786 66.3159 17.399C66.8958 17.1193 67.5229 16.9795 68.1971 16.9795C69.4513 16.9795 70.3951 17.3457 71.029 18.0781C71.6765 18.8104 72 19.8091 72 21.0742V27.1462H69.5321V21.6534C69.5321 20.8278 69.3433 20.2153 68.9658 19.8158C68.5883 19.403 68.0755 19.1966 67.4285 19.1966C66.6598 19.1966 66.0595 19.4363 65.628 19.9157C65.1965 20.395 64.981 21.0342 64.981 21.8332V27.1462Z" fill="#F4F5F6"/>
</svg>
